{
  "accessors": [
    {
      "bufferView": 2,
      "componentType": 5126,
      "count": 65532,
      "max": [
        1.6705100536346436,
        1.3199000358581543,
        1.9318000078201294
      ],
      "min": [
        -1.6705100536346436,
        -1.3199000358581543,
        -1.2513600587844849
      ],
      "type": "VEC3"
    },
    {
      "bufferView": 2,
      "byteOffset": 786384,
      "componentType": 5126,
      "count": 65532,
      "max": [
        1.0,
        1.0,
        1.0
      ],
      "min": [
        -1.0,
        -1.0,
        -1.0
      ],
      "type": "VEC3"
    },
    {
      "bufferView": 1,
      "componentType": 5126,
      "count": 65532,
      "max": [
        1.0,
        1.0
      ],
      "min": [
        -0.15828999876976013,
        -0.15828999876976013
      ],
      "type": "VEC2"
    },
    {
      "bufferView": 0,
      "componentType": 5125,
      "count": 364434,
      "type": "SCALAR"
    },
    {
      "bufferView": 2,
      "byteOffset": 1572768,
      "componentType": 5126,
      "count": 11789,
      "max": [
        0.8209400177001953,
        1.0354700088500977,
        1.753250002861023
      ],
      "min": [
        -1.193410038948059,
        -0.8626199960708618,
        -0.41697999835014343
      ],
      "type": "VEC3"
    },
    {
      "bufferView": 2,
      "byteOffset": 1714236,
      "componentType": 5126,
      "count": 11789,
      "max": [
        1.0,
        1.0,
        0.9995209574699402
      ],
      "min": [
        -1.0,
        -1.0,
        -1.0
      ],
      "type": "VEC3"
    },
    {
      "bufferView": 1,
      "byteOffset": 524256,
      "componentType": 5126,
      "count": 11789,
      "max": [
        0.5766500234603882,
        0.9546599984169006
      ],
      "min": [
        -0.002529999939724803,
        -0.012120000086724758
      ],
      "type": "VEC2"
    },
    {
      "bufferView": 0,
      "byteOffset": 1457736,
      "componentType": 5125,
      "count": 65364,
      "type": "SCALAR"
    },
    {
      "bufferView": 2,
      "byteOffset": 1855704,
      "componentType": 5126,
      "count": 948,
      "max": [
        -0.9409199953079224,
        6.040679931640625,
        -0.13989999890327454
      ],
      "min": [
        -5.016650199890137,
        -0.044199999421834946,
        -1.1118700504302979
      ],
      "type": "VEC3"
    },
    {
      "bufferView": 2,
      "byteOffset": 1867080,
      "componentType": 5126,
      "count": 948,
      "max": [
        0.9843099117279053,
        0.9783364534378052,
        0.9927123785018921
      ],
      "min": [
        -0.9843089580535889,
        -0.9915410280227661,
        -0.9926892518997192
      ],
      "type": "VEC3"
    },
    {
      "bufferView": 1,
      "byteOffset": 618568,
      "componentType": 5126,
      "count": 948,
      "max": [
        0.0,
        0.0
      ],
      "min": [
        0.0,
        0.0
      ],
      "type": "VEC2"
    },
    {
      "bufferView": 0,
      "byteOffset": 1719192,
      "componentType": 5125,
      "count": 5616,
      "type": "SCALAR"
    },
    {
      "bufferView": 2,
      "byteOffset": 1878456,
      "componentType": 5126,
      "count": 65532,
      "max": [
        0.8813899755477905,
        0.6960300207138062,
        1.7508399486541748
      ],
      "min": [
        -1.0241999626159668,
        -0.7733700275421143,
        -0.24097999930381775
      ],
      "type": "VEC3"
    },
    {
      "bufferView": 2,
      "byteOffset": 2664840,
      "componentType": 5126,
      "count": 65532,
      "max": [
        0.9999889731407166,
        0.9999276399612427,
        0.9997010827064514
      ],
      "min": [
        -0.9999772310256958,
        -0.9999755620956421,
        -0.9999447464942932
      ],
      "type": "VEC3"
    },
    {
      "bufferView": 1,
      "byteOffset": 626152,
      "componentType": 5126,
      "count": 65532,
      "max": [
        0.0,
        0.0
      ],
      "min": [
        0.0,
        0.0
      ],
      "type": "VEC2"
    },
    {
      "bufferView": 0,
      "byteOffset": 1741656,
      "componentType": 5125,
      "count": 222909,
      "type": "SCALAR"
    },
    {
      "bufferView": 2,
      "byteOffset": 3451224,
      "componentType": 5126,
      "count": 47632,
      "max": [
        -0.8235399723052979,
        0.045090001076459885,
        -0.0742499977350235
      ],
      "min": [
        -1.0419199466705322,
        -0.06678999960422516,
        -0.24055999517440796
      ],
      "type": "VEC3"
    },
    {
      "bufferView": 2,
      "byteOffset": 4022808,
      "componentType": 5126,
      "count": 47632,
      "max": [
        0.9988527297973633,
        0.9999754428863525,
        0.9596192836761475
      ],
      "min": [
        -0.9998266696929932,
        -0.9999799728393555,
        -0.9951939582824707
      ],
      "type": "VEC3"
    },
    {
      "bufferView": 1,
      "byteOffset": 1150408,
      "componentType": 5126,
      "count": 47632,
      "max": [
        0.0,
        0.0
      ],
      "min": [
        0.0,
        0.0
      ],
      "type": "VEC2"
    },
    {
      "bufferView": 0,
      "byteOffset": 2633292,
      "componentType": 5125,
      "count": 72003,
      "type": "SCALAR"
    },
    {
      "bufferView": 2,
      "byteOffset": 4594392,
      "componentType": 5126,
      "count": 27841,
      "max": [
        0.8806899785995483,
        0.6161699891090393,
        1.6698299646377563
      ],
      "min": [
        0.12269999831914902,
        -0.6935099959373474,
        0.04360000044107437
      ],
      "type": "VEC3"
    },
    {
      "bufferView": 2,
      "byteOffset": 4928484,
      "componentType": 5126,
      "count": 27841,
      "max": [
        0.9999997019767761,
        0.965650737285614,
        0.999397873878479
      ],
      "min": [
        -0.11863458156585693,
        -0.9656540751457214,
        -0.7069217562675476
      ],
      "type": "VEC3"
    },
    {
      "bufferView": 1,
      "byteOffset": 1531464,
      "componentType": 5126,
      "count": 27841,
      "max": [
        0.0,
        0.0
      ],
      "min": [
        0.0,
        0.0
      ],
      "type": "VEC2"
    },
    {
      "bufferView": 0,
      "byteOffset": 2921304,
      "componentType": 5125,
      "count": 165888,
      "type": "SCALAR"
    }
  ],
  "asset": {
    "extras": {
      "author": "Mike Rowley (https://sketchfab.com/scrumpy26)",
      "license": "CC-BY-NC-4.0 (http://creativecommons.org/licenses/by-nc/4.0/)",
      "source": "https://sketchfab.com/3d-models/stage-light-foot-flood-75a016ff59134af9bf8199e5633d08ec",
      "title": "Stage Light Foot Flood"
    },
    "generator": "Sketchfab-12.68.0",
    "version": "2.0"
  },
  "bufferViews": [
    {
      "buffer": 0,
      "byteLength": 3584856,
      "name": "floatBufferViews",
      "target": 34963
    },
    {
      "buffer": 0,
      "byteLength": 1754192,
      "byteOffset": 3584856,
      "byteStride": 8,
      "name": "floatBufferViews",
      "target": 34962
    },
    {
      "buffer": 0,
      "byteLength": 5262576,
      "byteOffset": 5339048,
      "byteStride": 12,
      "name": "floatBufferViews",
      "target": 34962
    }
  ],
  "buffers": [
    {
      "byteLength": 10601624,
      "uri": "scene.bin"
    }
  ],
  "extensionsRequired": [
    "KHR_materials_pbrSpecularGlossiness"
  ],
  "extensionsUsed": [
    "KHR_materials_pbrSpecularGlossiness"
  ],
  "materials": [
    {
      "doubleSided": true,
      "extensions": {
        "KHR_materials_pbrSpecularGlossiness": {
          "diffuseFactor": [
            0.0020548508178306287,
            0.0019184669139923128,
            0.0019184669139923128,
            1.0
          ],
          "glossinessFactor": 0.5049180388450623,
          "specularFactor": [
            0.0,
            0.0,
            0.0
          ]
        }
      },
      "name": "case"
    },
    {
      "doubleSided": true,
      "extensions": {
        "KHR_materials_pbrSpecularGlossiness": {
          "diffuseFactor": [
            0.001712375681525524,
            0.001575991777687208,
            0.001575991777687208,
            1.0
          ],
          "glossinessFactor": 0.16000000000000003,
          "specularFactor": [
            0.008147843778133393,
            0.008147843778133393,
            0.008147843778133393
          ]
        }
      },
      "name": "cord"
    },
    {
      "doubleSided": true,
      "extensions": {
        "KHR_materials_pbrSpecularGlossiness": {
          "diffuseFactor": [
            0.5,
            0.5,
            0.5,
            1.0
          ],
          "glossinessFactor": 0.91,
          "specularFactor": [
            0.800000011920929,
            0.800000011920929,
            0.800000011920929
          ]
        }
      },
      "name": "chrome"
    },
    {
      "alphaMode": "BLEND",
      "doubleSided": true,
      "extensions": {
        "KHR_materials_pbrSpecularGlossiness": {
          "diffuseFactor": [
            0.9022800986427694,
            0.6950098306041774,
            0.16585465417347675,
            0.7
          ],
          "glossinessFactor": 0.69,
          "specularFactor": [
            0.9309814245047139,
            0.912543585790996,
            0.20382155286384054
          ]
        }
      },
      "name": "glass"
    }
  ],
  "meshes": [
    {
      "name": "flood_0",
      "primitives": [
        {
          "attributes": {
            "NORMAL": 1,
            "POSITION": 0,
            "TEXCOORD_0": 2
          },
          "indices": 3,
          "material": 0,
          "mode": 4
        }
      ]
    },
    {
      "name": "flood_0",
      "primitives": [
        {
          "attributes": {
            "NORMAL": 5,
            "POSITION": 4,
            "TEXCOORD_0": 6
          },
          "indices": 7,
          "material": 0,
          "mode": 4
        }
      ]
    },
    {
      "name": "flood_1",
      "primitives": [
        {
          "attributes": {
            "NORMAL": 9,
            "POSITION": 8,
            "TEXCOORD_0": 10
          },
          "indices": 11,
          "material": 1,
          "mode": 4
        }
      ]
    },
    {
      "name": "flood_2",
      "primitives": [
        {
          "attributes": {
            "NORMAL": 13,
            "POSITION": 12,
            "TEXCOORD_0": 14
          },
          "indices": 15,
          "material": 2,
          "mode": 4
        }
      ]
    },
    {
      "name": "flood_2",
      "primitives": [
        {
          "attributes": {
            "NORMAL": 17,
            "POSITION": 16,
            "TEXCOORD_0": 18
          },
          "indices": 19,
          "material": 2,
          "mode": 4
        }
      ]
    },
    {
      "name": "flood_3",
      "primitives": [
        {
          "attributes": {
            "NORMAL": 21,
            "POSITION": 20,
            "TEXCOORD_0": 22
          },
          "indices": 23,
          "material": 3,
          "mode": 4
        }
      ]
    }
  ],
  "nodes": [
    {
      "children": [
        1
      ],
      "matrix": [
        1.0,
        0.0,
        0.0,
        0.0,
        0.0,
        2.220446049250313e-16,
        -1.0,
        0.0,
        0.0,
        1.0,
        2.220446049250313e-16,
        0.0,
        0.0,
        0.0,
        0.0,
        1.0
      ],
      "name": "Sketchfab_model"
    },
    {
      "children": [
        2,
        4
      ],
      "name": "Root"
    },
    {
      "children": [
        3
      ],
      "matrix": [
        -0.25253,
        0.1451,
        0.9566500000000001,
        0.0,
        -0.95721,
        -0.18187,
        -0.22510000000000002,
        0.0,
        0.14132,
        -0.9725599999999999,
        0.18482,
        0.0,
        4.076250000000001,
        -6.449560000000001,
        5.903860000000001,
        1.0
      ],
      "name": "Lamp"
    },
    {
      "name": "Lamp"
    },
    {
      "children": [
        5,
        6,
        7,
        8,
        9,
        10
      ],
      "matrix": [
        1.0,
        0.0,
        0.0,
        0.0,
        0.0,
        1.2656299999999998,
        0.0,
        0.0,
        0.0,
        0.0,
        0.93128,
        0.0,
        0.009400000000000002,
        0.044830000000000016,
        -0.6551100000000001,
        1.0
      ],
      "name": "flood"
    },
    {
      "mesh": 0,
      "name": "flood_0"
    },
    {
      "mesh": 1,
      "name": "flood_0"
    },
    {
      "mesh": 2,
      "name": "flood_1"
    },
    {
      "mesh": 3,
      "name": "flood_2"
    },
    {
      "mesh": 4,
      "name": "flood_2"
    },
    {
      "mesh": 5,
      "name": "flood_3"
    }
  ],
  "scene": 0,
  "scenes": [
    {
      "name": "Sketchfab_Scene",
      "nodes": [
        0
      ]
    }
  ]
}
